<svg fill="none" height="32" viewBox="0 0 32 32" width="32" xmlns="http://www.w3.org/2000/svg"><path d="m0 5c0-2.76142 2.23858-5 5-5h22c2.7614 0 5 2.23858 5 5v22c0 2.7614-2.2386 5-5 5h-22c-2.76142 0-5-2.2386-5-5z" fill="#fff"/><path d="m8 15.68c0-3.6213 0-5.4293 1.12-6.56 1.136-1.12 2.944-1.12 6.56-1.12h.64c3.6213 0 5.4293 0 6.56 1.12 1.12 1.136 1.12 2.944 1.12 6.56v.64c0 3.6213 0 5.4293-1.12 6.56-1.136 1.12-2.944 1.12-6.56 1.12h-.64c-3.6213 0-5.4293 0-6.56-1.12-1.12-1.136-1.12-2.944-1.12-6.56z" fill="#07f"/><path d="m16.512 19.5253c-3.648 0-5.728-2.496-5.8133-6.656h1.8346c.0587 3.0507 1.4027 4.3413 2.4694 4.608v-4.608h1.7226v2.6293c1.0507-.112 2.16-1.312 2.5334-2.6346h1.7173c-.14.6847-.4197 1.3331-.8217 1.9048-.4019.5717-.9174 1.0544-1.5143 1.4178.6661.3316 1.2543.8006 1.726 1.376.4716.5755.8158 1.2445 1.01 1.9627h-1.8933c-.4054-1.264-1.4187-2.2453-2.7574-2.3787v2.3787h-.208z" fill="#fff"/></svg>